# Blender v3.2.2 OBJ File: ''
# www.blender.org
mtllib test_person.mtl
o Cube
v 0.627200 1.426149 -1.000000
v 1.000000 -1.000000 -1.000000
v 0.514552 1.565711 0.193635
v 1.000000 -1.000000 1.000000
v 0.034910 1.363980 -0.790436
v -1.000000 -1.000000 -1.000000
v -0.143229 1.507472 0.003384
v -1.000000 -1.000000 1.000000
vt 0.625000 0.500000
vt 0.875000 0.500000
vt 0.875000 0.750000
vt 0.625000 0.750000
vt 0.375000 0.750000
vt 0.625000 1.000000
vt 0.375000 1.000000
vt 0.375000 0.000000
vt 0.625000 0.000000
vt 0.625000 0.250000
vt 0.375000 0.250000
vt 0.125000 0.500000
vt 0.375000 0.500000
vt 0.125000 0.750000
vn -0.0971 0.9833 -0.1542
vn -0.0746 0.3388 0.9379
vn -0.9335 0.3500 -0.0775
vn 0.0000 -1.0000 0.0000
vn 0.9844 0.1736 0.0271
vn -0.0818 0.0548 -0.9951
usemtl Material
s off
f 1/1/1 5/2/1 7/3/1 3/4/1
f 4/5/2 3/4/2 7/6/2 8/7/2
f 8/8/3 7/9/3 5/10/3 6/11/3
f 6/12/4 2/13/4 4/5/4 8/14/4
f 2/13/5 1/1/5 3/4/5 4/5/5
f 6/11/6 5/10/6 1/1/6 2/13/6
o Cube.001_Cube.002
v 0.424465 2.282314 -1.344828
v 0.289703 2.609623 -1.013241
v 0.680308 2.348010 -1.146696
v 0.372105 2.432714 -1.294519
v 0.567151 2.302078 -1.361159
v 0.510200 2.444408 -1.310874
v 0.450393 2.585660 -1.073871
v 0.322639 2.552855 -1.172807
v 0.474422 2.531306 -1.222841
v 0.661061 2.326192 -1.288433
v 0.593768 2.489632 -1.122857
v 0.578124 2.461850 -1.258272
v 0.700791 1.231217 -1.014256
v 0.629437 1.559922 -1.336824
v 0.919081 1.529288 -1.146280
v 0.693008 1.287817 -1.171044
v 0.837640 1.272520 -1.075896
v 0.823204 1.325886 -1.222150
v 0.775818 1.557311 -1.355371
v 0.666816 1.408471 -1.289446
v 0.804260 1.413154 -1.307789
v 0.917765 1.381930 -1.124357
v 0.882135 1.546067 -1.285430
v 0.881158 1.405021 -1.257202
v 0.622728 2.434744 -0.429838
v 0.251030 2.682448 -0.637907
v 0.294648 2.445007 -0.207245
v 0.545311 2.567735 -0.503831
v 0.567092 2.449170 -0.288782
v 0.494605 2.574880 -0.366448
v 0.245051 2.663782 -0.469053
v 0.408876 2.658657 -0.580204
v 0.395923 2.640643 -0.421688
v 0.446667 2.452938 -0.207077
v 0.261062 2.576627 -0.310974
v 0.407503 2.577605 -0.307352
v 0.912425 1.404985 0.064145
v 0.599645 1.392688 0.419470
v 0.703542 1.138878 0.256824
v 0.867654 1.388097 0.231047
v 0.919534 1.261358 0.149831
v 0.875021 1.252407 0.304630
v 0.648540 1.250704 0.457686
v 0.752845 1.383583 0.361473
v 0.791981 1.249142 0.398966
v 0.842862 1.163681 0.220556
v 0.686677 1.157541 0.397985
v 0.819564 1.181758 0.355785
v 0.187786 2.258666 -1.245577
v -0.216679 2.362201 -0.838000
v 0.285266 2.636148 -1.017912
v 0.023522 2.303706 -1.154676
v 0.196529 2.416278 -1.225089
v 0.073855 2.444758 -1.163263
v -0.078438 2.480826 -0.905543
v -0.123954 2.341457 -1.006066
v 0.003377 2.464830 -1.087240
v 0.231824 2.552957 -1.142656
v 0.104939 2.580908 -0.971271
v 0.091817 2.515629 -1.119211
v -0.730280 1.464470 -0.498728
v -0.382575 1.537296 -0.959283
v -0.626698 1.246297 -0.512083
v -0.688509 1.483810 -0.677142
v -0.810410 1.338501 -0.453836
v -0.764922 1.363253 -0.626500
v -0.509157 1.401598 -0.852862
v -0.560880 1.510542 -0.846193
v -0.672610 1.382588 -0.748773
v -0.772390 1.258419 -0.458738
v -0.598765 1.294784 -0.688713
v -0.737422 1.305330 -0.630046
v -0.155816 2.361799 -0.576368
v 0.070007 2.472464 -0.188084
v 0.208704 2.658643 -0.647304
v -0.137153 2.429690 -0.430882
v -0.080752 2.502582 -0.616534
v -0.079821 2.559881 -0.477203
v 0.104880 2.580309 -0.317095
v -0.055298 2.469803 -0.290139
v -0.035981 2.580478 -0.404689
v 0.051525 2.610300 -0.642275
v 0.155408 2.648136 -0.484393
v -0.010366 2.614554 -0.489531
v -0.378839 1.230094 0.256649
v -0.216157 1.484613 0.384745
v -0.611216 1.531724 0.056989
v -0.323871 1.266044 0.388185
v -0.521141 1.289569 0.224522
v -0.461567 1.322174 0.350284
v -0.380193 1.510085 0.335504
v -0.264157 1.359468 0.435204
v -0.418376 1.389746 0.384292
v -0.606437 1.400285 0.151234
v -0.525203 1.527378 0.215198
v -0.523261 1.402254 0.297276
vt 0.163336 0.551974
vt 0.336035 0.542192
vt 0.331198 0.708543
vt 0.168770 0.697969
vt 0.420631 0.067222
vt 0.580683 0.083911
vt 0.579091 0.163583
vt 0.418915 0.185300
vt 0.417078 0.805896
vt 0.583609 0.839006
vt 0.583031 0.911519
vt 0.417353 0.945235
vt 0.748907 0.579786
vt 0.749686 0.579593
vt 0.758835 0.674058
vt 0.741213 0.675695
vt 0.426230 0.543397
vt 0.574492 0.554626
vt 0.580009 0.693762
vt 0.421343 0.704419
vt 0.568435 0.417125
vt 0.597009 0.391163
vt 0.596373 0.439263
vt 0.569639 0.458025
vt 0.625000 0.349031
vt 0.612243 0.414897
vt 0.686301 0.570696
vt 0.684981 0.536183
vt 0.775969 0.500000
vt 0.601171 0.563201
vt 0.600021 0.536096
vt 0.573687 0.528254
vt 0.601375 0.526386
vt 0.615456 0.546020
vt 0.335415 0.520950
vt 0.351694 0.520067
vt 0.353479 0.539750
vt 0.332454 0.500000
vt 0.348255 0.500000
vt 0.431098 0.452652
vt 0.429162 0.473777
vt 0.375000 0.473255
vt 0.375000 0.457454
vt 0.429694 0.524046
vt 0.406183 0.527108
vt 0.402263 0.544243
vt 0.358565 0.517616
vt 0.603349 0.689421
vt 0.604220 0.717490
vt 0.583011 0.721209
vt 0.679702 0.682899
vt 0.686593 0.750000
vt 0.743184 0.750000
vt 0.625000 0.868184
vt 0.606475 0.847859
vt 0.607856 0.795706
vt 0.625000 0.811593
vt 0.586333 0.790899
vt 0.612602 0.765178
vt 0.422746 0.727310
vt 0.403780 0.729539
vt 0.401147 0.708333
vt 0.422512 0.778258
vt 0.375000 0.785912
vt 0.375000 0.808046
vt 0.316954 0.750000
vt 0.327315 0.727542
vt 0.347623 0.722437
vt 0.339088 0.750000
vt 0.351798 0.705250
vt 0.355519 0.715976
vt 0.567122 0.341719
vt 0.577361 0.286473
vt 0.604078 0.275094
vt 0.596866 0.324431
vt 0.585133 0.208072
vt 0.611435 0.213209
vt 0.605899 0.161803
vt 0.625000 0.175579
vt 0.626115 0.249904
vt 0.813665 0.500000
vt 0.870213 0.500000
vt 0.875000 0.574421
vt 0.625000 0.311335
vt 0.625000 0.254787
vt 0.607984 0.249620
vt 0.428907 0.218675
vt 0.375000 0.223227
vt 0.375000 0.194908
vt 0.427215 0.279282
vt 0.375000 0.288581
vt 0.432256 0.303380
vt 0.375000 0.310800
vt 0.185800 0.500000
vt 0.171395 0.523610
vt 0.153367 0.525219
vt 0.163581 0.500000
vt 0.143681 0.553722
vt 0.125000 0.555092
vt 0.125000 0.526773
vt 0.595960 0.000000
vt 0.616121 0.000000
vt 0.606249 0.071319
vt 0.595960 1.000000
vt 0.588532 0.954294
vt 0.610551 0.956416
vt 0.616121 1.000000
vt 0.605752 0.903996
vt 0.625000 0.901426
vt 0.625000 0.960702
vt 0.875000 0.675119
vt 0.835702 0.750000
vt 0.776426 0.750000
vt 0.625000 0.074881
vt 0.633405 -0.015326
vt 0.172067 0.721612
vt 0.152517 0.713082
vt 0.149320 0.688831
vt 0.174013 0.750000
vt 0.149607 0.750000
vt 0.421315 0.975778
vt 0.375000 0.975393
vt 0.375000 0.950987
vt 0.430836 1.000000
vt 0.387442 1.019788
vt 0.375000 0.072805
vt 0.375000 0.041439
vt 0.430836 0.000000
vt 0.125000 0.677195
vt 0.125000 0.708561
vn -0.0537 -0.9975 -0.0465
vn -0.8287 0.5425 0.1381
vn 0.0453 0.5066 0.8610
vn 0.0913 0.9895 -0.1123
vn 0.9581 0.2839 0.0375
vn -0.1414 0.2741 -0.9513
vn -0.1429 0.6747 -0.7241
vn 0.0182 0.9418 -0.3358
vn 0.4864 0.8431 -0.2292
vn 0.8183 0.5390 -0.1995
vn 0.4692 0.4551 -0.7568
vn 0.2848 0.7376 -0.6123
vn 0.1298 -0.9290 -0.3466
vn -0.0699 -0.7064 -0.7044
vn -0.1194 -0.3277 -0.9372
vn 0.5290 -0.1701 -0.8314
vn 0.9619 -0.0543 -0.2681
vn 0.6989 -0.6469 -0.3050
vn 0.3953 -0.5982 -0.6970
vn 0.7682 0.5903 0.2477
vn 0.4946 0.8581 0.1379
vn 0.1102 0.9870 0.1170
vn -0.0178 0.8748 0.4841
vn -0.0284 0.6176 0.7860
vn 0.4441 0.6421 0.6249
vn 0.3198 0.8431 0.4324
vn 0.9384 0.2066 0.2770
vn 0.6898 0.3737 0.6201
vn 0.3538 0.3502 0.8673
vn 0.3429 -0.4033 0.8484
vn 0.2194 -0.9625 0.1598
vn 0.8373 -0.5040 0.2116
vn 0.7477 -0.1132 0.6543
vn -0.4416 0.1228 -0.8888
vn -0.6735 0.2122 -0.7081
vn -0.7284 0.5411 -0.4203
vn -0.5438 0.7815 -0.3060
vn -0.3331 0.8599 -0.3869
vn -0.2744 0.5508 -0.7882
vn -0.5424 0.5384 -0.6450
vn -0.8600 0.4870 -0.1526
vn -0.7889 0.2676 -0.5533
vn -0.5083 -0.1899 -0.8400
vn -0.3216 -0.7038 -0.6335
vn -0.1895 -0.9377 -0.2914
vn -0.8721 -0.3965 -0.2866
vn -0.7340 -0.3116 -0.6034
vn -0.9065 0.4059 -0.1160
vn -0.8075 0.4830 0.3385
vn -0.4051 0.7235 0.5590
vn -0.1966 0.9282 0.3158
vn -0.2453 0.9669 -0.0703
vn -0.6332 0.7200 -0.2839
vn -0.5976 0.7900 0.1369
vn -0.4337 -0.8038 0.4072
vn -0.3461 -0.2358 0.9081
vn -0.2024 0.4273 0.8812
vn -0.5347 0.4577 0.7103
vn -0.8332 0.2982 0.4657
vn -0.8213 -0.3203 0.4721
vn -0.6370 0.0193 0.7706
vn -0.2340 -0.9680 0.0904
vn -0.8426 -0.4268 0.3285
vn -0.9022 0.3772 0.2092
vn -0.1226 -0.9444 -0.3051
vn -0.2387 -0.7296 -0.6409
vn -0.3199 -0.3682 -0.8730
vn 0.9430 0.2708 -0.1935
vn 0.5666 0.1550 -0.8092
vn -0.1172 -0.0424 -0.9922
vn -0.3457 0.5681 0.7468
vn -0.6362 0.5862 0.5016
vn -0.8286 0.5321 0.1743
vn 0.1610 0.5192 0.8393
vn 0.5809 0.4954 0.6459
vn 0.8757 0.3872 0.2886
vn -0.5090 0.0506 -0.8593
vn -0.7257 0.2589 -0.6374
vn -0.8547 0.3980 -0.3334
vn -0.2918 0.9560 0.0319
vn -0.0808 0.9032 0.4216
vn 0.0813 0.6944 0.7150
vn 0.1452 0.9779 -0.1507
vn 0.5588 0.8266 -0.0671
vn 0.8582 0.5133 0.0048
vn -0.0939 -0.9736 0.2081
vn -0.0699 -0.4892 0.8694
vn 0.0052 0.3151 0.9491
vn -0.3088 0.9426 -0.1273
vn -0.5697 0.8132 -0.1187
vn -0.7597 0.6478 0.0557
vn 0.1285 0.8860 -0.4454
vn -0.3163 0.5796 -0.7511
vn -0.3870 0.1542 -0.9091
vn 0.2062 -0.9755 -0.0771
vn 0.7796 -0.6236 -0.0578
vn 0.9998 0.0214 0.0041
vn -0.3516 -0.1007 -0.9307
usemtl Material.002
s off
f 71/15/7 21/16/7 47/17/7 93/18/7
f 95/19/8 81/20/8 58/21/8 69/22/8
f 46/23/9 35/24/9 82/25/9 94/26/9
f 10/27/10 59/28/10 83/29/10 34/30/10
f 23/31/11 11/32/11 33/33/11 45/34/11
f 9/35/12 12/36/12 14/37/12 13/38/12
f 12/36/13 16/39/13 17/40/13 14/37/13
f 10/27/14 15/41/14 17/42/14 16/43/14
f 15/41/15 19/44/15 20/45/15 17/42/15
f 11/32/16 18/46/16 20/45/16 19/44/16
f 18/46/17 13/38/17 14/37/17 20/45/17
f 14/47/18 17/48/18 20/45/18
f 21/16/19 24/49/19 26/50/19 25/51/19
f 24/49/20 28/52/20 29/53/20 26/50/20
f 22/54/21 27/55/21 29/56/21 28/57/21
f 27/55/22 31/58/22 32/59/22 29/56/22
f 23/31/23 30/60/23 32/59/23 31/58/23
f 30/60/24 25/51/24 26/50/24 32/59/24
f 26/50/25 29/53/25 32/61/25
f 33/33/26 36/62/26 38/63/26 37/64/26
f 36/62/27 40/65/27 41/66/27 38/63/27
f 34/30/28 39/67/28 41/66/28 40/65/28
f 39/68/29 43/69/29 44/70/29 41/71/29
f 35/24/30 42/72/30 44/70/30 43/69/30
f 42/72/31 37/64/31 38/63/31 44/70/31
f 38/73/32 41/71/32 44/70/32
f 45/34/33 48/74/33 50/75/33 49/76/33
f 48/74/34 52/77/34 53/78/34 50/75/34
f 46/23/35 51/79/35 53/78/35 52/77/35
f 51/80/36 55/81/36 56/82/36 53/83/36
f 47/17/37 54/84/37 56/82/37 55/81/37
f 54/84/38 49/76/38 50/75/38 56/82/38
f 50/85/39 53/83/39 56/82/39
f 57/86/40 60/87/40 62/88/40 61/89/40
f 60/87/41 64/90/41 65/91/41 62/88/41
f 58/21/42 63/92/42 65/91/42 64/90/42
f 63/92/43 67/93/43 68/94/43 65/91/43
f 59/28/44 66/95/44 68/96/44 67/97/44
f 66/98/45 61/89/45 62/88/45 68/99/45
f 62/88/46 65/100/46 68/99/46
f 69/22/47 72/101/47 74/102/47 73/103/47
f 72/101/48 76/104/48 77/105/48 74/102/48
f 70/106/49 75/107/49 77/105/49 76/104/49
f 75/108/50 79/109/50 80/110/50 77/111/50
f 71/15/51 78/112/51 80/110/51 79/109/51
f 78/112/52 73/113/52 74/114/52 80/110/52
f 74/114/53 77/111/53 80/110/53
f 81/20/54 84/115/54 86/116/54 85/117/54
f 84/118/55 88/119/55 89/120/55 86/121/55
f 82/25/56 87/122/56 89/120/56 88/119/56
f 87/122/57 91/123/57 92/124/57 89/120/57
f 83/29/58 90/125/58 92/126/58 91/127/58
f 90/128/59 85/117/59 86/116/59 92/129/59
f 86/121/60 89/120/60 92/124/60
f 93/18/61 96/130/61 98/131/61 97/132/61
f 96/130/62 100/133/62 101/134/62 98/131/62
f 94/26/63 99/135/63 101/136/63 100/137/63
f 99/135/64 103/138/64 104/139/64 101/136/64
f 95/19/65 102/140/65 104/141/65 103/142/65
f 102/143/66 97/132/66 98/131/66 104/144/66
f 98/131/67 101/134/67 104/144/67
f 71/15/68 93/18/68 97/132/68 78/112/68
f 78/112/69 97/132/69 102/143/69 73/113/69
f 73/103/70 102/140/70 95/19/70 69/22/70
f 21/16/71 71/15/71 79/109/71 24/49/71
f 24/49/72 79/109/72 75/108/72 28/52/72
f 28/57/73 75/107/73 70/106/73 22/54/73
f 11/32/74 23/31/74 31/58/74 18/46/74
f 18/46/75 31/58/75 27/55/75 13/38/75
f 13/38/76 27/55/76 22/54/76 9/35/76
f 94/26/77 82/25/77 88/119/77 99/135/77
f 99/135/78 88/119/78 84/118/78 103/138/78
f 103/142/79 84/115/79 81/20/79 95/19/79
f 35/24/80 46/23/80 52/77/80 42/72/80
f 42/72/81 52/77/81 48/74/81 37/64/81
f 37/64/82 48/74/82 45/34/82 33/33/82
f 57/86/83 70/106/83 76/104/83 60/87/83
f 60/87/84 76/104/84 72/101/84 64/90/84
f 64/90/85 72/101/85 69/22/85 58/21/85
f 34/30/86 83/29/86 91/127/86 39/67/86
f 39/68/87 91/123/87 87/122/87 43/69/87
f 43/69/88 87/122/88 82/25/88 35/24/88
f 10/27/89 34/30/89 40/65/89 15/41/89
f 15/41/90 40/65/90 36/62/90 19/44/90
f 19/44/91 36/62/91 33/33/91 11/32/91
f 93/18/92 47/17/92 55/81/92 96/130/92
f 96/130/93 55/81/93 51/80/93 100/133/93
f 100/137/94 51/79/94 46/23/94 94/26/94
f 83/29/95 59/28/95 67/97/95 90/125/95
f 90/128/96 67/93/96 63/92/96 85/117/96
f 85/117/97 63/92/97 58/21/97 81/20/97
f 59/28/98 10/27/98 16/43/98 66/95/98
f 66/98/99 16/39/99 12/36/99 61/89/99
f 61/89/100 12/36/100 9/35/100 57/86/100
f 47/17/101 21/16/101 25/51/101 54/84/101
f 54/84/102 25/51/102 30/60/102 49/76/102
f 49/76/103 30/60/103 23/31/103 45/34/103
f 70/106/104 57/86/104 9/35/104 22/54/104
